<mxfile host="app.diagrams.net" modified="2020-10-23T12:18:56.808Z" agent="5.0 (Macintosh; Intel Mac OS X 10_15_7) AppleWebKit/605.1.15 (KHTML, like Gecko) Version/14.0 Safari/605.1.15" etag="mCoIQf9Gv2aEpxKshufQ" version="13.8.1" type="github" pages="2">
  <diagram id="hAEHXBgW_sw-LOkyO_sJ" name="Page-1">
    <mxGraphModel dx="946" dy="662" grid="1" gridSize="10" guides="1" tooltips="1" connect="1" arrows="1" fold="1" page="1" pageScale="1" pageWidth="850" pageHeight="1100" math="0" shadow="0">
      <root>
        <mxCell id="0" />
        <mxCell id="1" parent="0" />
        <mxCell id="sgPDyOiIJ39v793JOs24-14" value="" style="edgeStyle=orthogonalEdgeStyle;rounded=0;orthogonalLoop=1;jettySize=auto;html=1;" edge="1" parent="1" source="sgPDyOiIJ39v793JOs24-1" target="sgPDyOiIJ39v793JOs24-8">
          <mxGeometry relative="1" as="geometry" />
        </mxCell>
        <mxCell id="sgPDyOiIJ39v793JOs24-1" value="" style="ellipse;html=1;shape=startState;fillColor=#000000;strokeColor=#ff0000;" vertex="1" parent="1">
          <mxGeometry x="410" y="50" width="30" height="30" as="geometry" />
        </mxCell>
        <mxCell id="sgPDyOiIJ39v793JOs24-15" value="" style="edgeStyle=orthogonalEdgeStyle;rounded=0;orthogonalLoop=1;jettySize=auto;html=1;" edge="1" parent="1" source="sgPDyOiIJ39v793JOs24-6" target="sgPDyOiIJ39v793JOs24-12">
          <mxGeometry relative="1" as="geometry" />
        </mxCell>
        <mxCell id="sgPDyOiIJ39v793JOs24-6" value="Idle&lt;br&gt;" style="html=1;rotation=0;direction=west;gradientDirection=east;rounded=1;fillColor=#ffcd28;strokeColor=#d79b00;gradientColor=#ffa500;" vertex="1" parent="1">
          <mxGeometry x="378" y="110" width="95" height="40" as="geometry" />
        </mxCell>
        <mxCell id="sgPDyOiIJ39v793JOs24-8" value="loading DVD" style="html=1;rotation=0;direction=west;gradientDirection=east;rounded=1;gradientColor=#ffd966;fillColor=#fff2cc;strokeColor=#d6b656;" vertex="1" parent="1">
          <mxGeometry x="375" y="180" width="100" height="40" as="geometry" />
        </mxCell>
        <mxCell id="sgPDyOiIJ39v793JOs24-70" style="edgeStyle=orthogonalEdgeStyle;rounded=0;orthogonalLoop=1;jettySize=auto;html=1;entryX=0.5;entryY=0;entryDx=0;entryDy=0;" edge="1" parent="1" source="sgPDyOiIJ39v793JOs24-11" target="sgPDyOiIJ39v793JOs24-68">
          <mxGeometry relative="1" as="geometry" />
        </mxCell>
        <mxCell id="sgPDyOiIJ39v793JOs24-11" value="Open tray" style="html=1;rotation=0;direction=west;gradientDirection=east;rounded=1;gradientColor=#ea6b66;fillColor=#f8cecc;strokeColor=#b85450;" vertex="1" parent="1">
          <mxGeometry x="230" y="310" width="100" height="40" as="geometry" />
        </mxCell>
        <mxCell id="sgPDyOiIJ39v793JOs24-17" style="edgeStyle=orthogonalEdgeStyle;rounded=0;orthogonalLoop=1;jettySize=auto;html=1;entryX=0.5;entryY=1;entryDx=0;entryDy=0;" edge="1" parent="1" source="sgPDyOiIJ39v793JOs24-12" target="sgPDyOiIJ39v793JOs24-11">
          <mxGeometry relative="1" as="geometry" />
        </mxCell>
        <mxCell id="sgPDyOiIJ39v793JOs24-21" value="" style="edgeStyle=orthogonalEdgeStyle;rounded=0;orthogonalLoop=1;jettySize=auto;html=1;" edge="1" parent="1" source="sgPDyOiIJ39v793JOs24-12" target="sgPDyOiIJ39v793JOs24-18">
          <mxGeometry relative="1" as="geometry" />
        </mxCell>
        <mxCell id="sgPDyOiIJ39v793JOs24-12" value="" style="rhombus;whiteSpace=wrap;html=1;rounded=0;gradientColor=none;" vertex="1" parent="1">
          <mxGeometry x="413" y="250" width="25" height="30" as="geometry" />
        </mxCell>
        <mxCell id="sgPDyOiIJ39v793JOs24-23" value="" style="edgeStyle=orthogonalEdgeStyle;rounded=0;orthogonalLoop=1;jettySize=auto;html=1;" edge="1" parent="1" source="sgPDyOiIJ39v793JOs24-18" target="sgPDyOiIJ39v793JOs24-11">
          <mxGeometry relative="1" as="geometry" />
        </mxCell>
        <mxCell id="sgPDyOiIJ39v793JOs24-25" value="" style="edgeStyle=orthogonalEdgeStyle;rounded=0;orthogonalLoop=1;jettySize=auto;html=1;" edge="1" parent="1" source="sgPDyOiIJ39v793JOs24-18" target="sgPDyOiIJ39v793JOs24-24">
          <mxGeometry relative="1" as="geometry" />
        </mxCell>
        <mxCell id="sgPDyOiIJ39v793JOs24-18" value="Menus&amp;nbsp;" style="html=1;rotation=0;direction=west;gradientDirection=east;rounded=1;gradientColor=#ffd966;fillColor=#fff2cc;strokeColor=#d6b656;" vertex="1" parent="1">
          <mxGeometry x="375.5" y="310" width="100" height="40" as="geometry" />
        </mxCell>
        <mxCell id="sgPDyOiIJ39v793JOs24-22" value="Damage&amp;nbsp;" style="text;html=1;strokeColor=none;fillColor=none;align=center;verticalAlign=middle;whiteSpace=wrap;rounded=0;" vertex="1" parent="1">
          <mxGeometry x="270" y="240" width="90" height="20" as="geometry" />
        </mxCell>
        <mxCell id="sgPDyOiIJ39v793JOs24-27" value="" style="edgeStyle=orthogonalEdgeStyle;rounded=0;orthogonalLoop=1;jettySize=auto;html=1;" edge="1" parent="1" source="sgPDyOiIJ39v793JOs24-24" target="sgPDyOiIJ39v793JOs24-26">
          <mxGeometry relative="1" as="geometry" />
        </mxCell>
        <mxCell id="sgPDyOiIJ39v793JOs24-24" value="Record&amp;nbsp;" style="html=1;rotation=0;direction=west;gradientDirection=east;rounded=1;gradientColor=#ffd966;fillColor=#fff2cc;strokeColor=#d6b656;" vertex="1" parent="1">
          <mxGeometry x="375.5" y="380" width="100" height="40" as="geometry" />
        </mxCell>
        <mxCell id="sgPDyOiIJ39v793JOs24-29" style="edgeStyle=orthogonalEdgeStyle;rounded=0;orthogonalLoop=1;jettySize=auto;html=1;" edge="1" parent="1" source="sgPDyOiIJ39v793JOs24-26" target="sgPDyOiIJ39v793JOs24-28">
          <mxGeometry relative="1" as="geometry" />
        </mxCell>
        <mxCell id="sgPDyOiIJ39v793JOs24-32" value="" style="edgeStyle=orthogonalEdgeStyle;rounded=0;orthogonalLoop=1;jettySize=auto;html=1;" edge="1" parent="1" source="sgPDyOiIJ39v793JOs24-26" target="sgPDyOiIJ39v793JOs24-31">
          <mxGeometry relative="1" as="geometry" />
        </mxCell>
        <mxCell id="sgPDyOiIJ39v793JOs24-26" value="" style="rhombus;whiteSpace=wrap;html=1;rounded=0;gradientColor=none;" vertex="1" parent="1">
          <mxGeometry x="413" y="450" width="25" height="30" as="geometry" />
        </mxCell>
        <mxCell id="sgPDyOiIJ39v793JOs24-30" style="edgeStyle=orthogonalEdgeStyle;rounded=0;orthogonalLoop=1;jettySize=auto;html=1;entryX=0;entryY=0.5;entryDx=0;entryDy=0;exitX=0.5;exitY=1;exitDx=0;exitDy=0;" edge="1" parent="1" source="sgPDyOiIJ39v793JOs24-28" target="sgPDyOiIJ39v793JOs24-18">
          <mxGeometry relative="1" as="geometry">
            <mxPoint x="570" y="320" as="targetPoint" />
            <mxPoint x="560" y="330" as="sourcePoint" />
          </mxGeometry>
        </mxCell>
        <mxCell id="sgPDyOiIJ39v793JOs24-28" value="full space&amp;nbsp;" style="html=1;rotation=0;direction=west;gradientDirection=east;rounded=1;gradientColor=#d5739d;fillColor=#e6d0de;strokeColor=#996185;" vertex="1" parent="1">
          <mxGeometry x="510" y="380" width="100" height="40" as="geometry" />
        </mxCell>
        <mxCell id="sgPDyOiIJ39v793JOs24-40" value="" style="edgeStyle=orthogonalEdgeStyle;rounded=0;orthogonalLoop=1;jettySize=auto;html=1;" edge="1" parent="1" source="sgPDyOiIJ39v793JOs24-31" target="sgPDyOiIJ39v793JOs24-38">
          <mxGeometry relative="1" as="geometry" />
        </mxCell>
        <mxCell id="sgPDyOiIJ39v793JOs24-31" value="Recording&amp;nbsp;&amp;nbsp;" style="html=1;rotation=0;direction=west;gradientDirection=east;rounded=1;gradientColor=#ffd966;fillColor=#fff2cc;strokeColor=#d6b656;" vertex="1" parent="1">
          <mxGeometry x="375.5" y="530" width="100" height="40" as="geometry" />
        </mxCell>
        <mxCell id="sgPDyOiIJ39v793JOs24-33" value="Check space&amp;nbsp;" style="html=1;rotation=0;direction=east;gradientDirection=east;rounded=1;horizontal=1;gradientColor=#7ea6e0;fillColor=#dae8fc;strokeColor=#6c8ebf;" vertex="1" parent="1">
          <mxGeometry x="550" y="490" width="100" height="40" as="geometry" />
        </mxCell>
        <mxCell id="sgPDyOiIJ39v793JOs24-34" value="Rejected&amp;nbsp;" style="text;html=1;strokeColor=none;fillColor=none;align=center;verticalAlign=middle;whiteSpace=wrap;rounded=0;" vertex="1" parent="1">
          <mxGeometry x="500" y="300" width="100" height="20" as="geometry" />
        </mxCell>
        <mxCell id="sgPDyOiIJ39v793JOs24-38" value="" style="shape=line;html=1;strokeWidth=6;strokeColor=#ff0000;rounded=0;gradientColor=none;direction=south;" vertex="1" parent="1">
          <mxGeometry x="510" y="510" width="10" height="80" as="geometry" />
        </mxCell>
        <mxCell id="sgPDyOiIJ39v793JOs24-44" value="" style="endArrow=classic;html=1;entryX=0;entryY=0.5;entryDx=0;entryDy=0;exitX=0;exitY=0.5;exitDx=0;exitDy=0;exitPerimeter=0;" edge="1" parent="1" source="sgPDyOiIJ39v793JOs24-38" target="sgPDyOiIJ39v793JOs24-33">
          <mxGeometry width="50" height="50" relative="1" as="geometry">
            <mxPoint x="470" y="490" as="sourcePoint" />
            <mxPoint x="520" y="440" as="targetPoint" />
          </mxGeometry>
        </mxCell>
        <mxCell id="sgPDyOiIJ39v793JOs24-48" value="" style="verticalLabelPosition=bottom;verticalAlign=top;html=1;shape=mxgraph.flowchart.collate;rounded=0;gradientColor=none;" vertex="1" parent="1">
          <mxGeometry x="600" y="580" width="20" height="20" as="geometry" />
        </mxCell>
        <mxCell id="sgPDyOiIJ39v793JOs24-49" value="" style="endArrow=classic;html=1;exitX=1;exitY=0.5;exitDx=0;exitDy=0;exitPerimeter=0;" edge="1" parent="1" source="sgPDyOiIJ39v793JOs24-38" target="sgPDyOiIJ39v793JOs24-48">
          <mxGeometry width="50" height="50" relative="1" as="geometry">
            <mxPoint x="470" y="490" as="sourcePoint" />
            <mxPoint x="520" y="440" as="targetPoint" />
          </mxGeometry>
        </mxCell>
        <mxCell id="sgPDyOiIJ39v793JOs24-53" value="" style="shape=line;html=1;strokeWidth=6;strokeColor=#ff0000;rounded=0;gradientColor=none;direction=south;" vertex="1" parent="1">
          <mxGeometry x="680" y="510" width="10" height="80" as="geometry" />
        </mxCell>
        <mxCell id="sgPDyOiIJ39v793JOs24-56" value="" style="endArrow=none;html=1;exitX=1;exitY=0.5;exitDx=0;exitDy=0;entryX=0;entryY=0.5;entryDx=0;entryDy=0;entryPerimeter=0;" edge="1" parent="1" source="sgPDyOiIJ39v793JOs24-33" target="sgPDyOiIJ39v793JOs24-53">
          <mxGeometry width="50" height="50" relative="1" as="geometry">
            <mxPoint x="470" y="490" as="sourcePoint" />
            <mxPoint x="520" y="440" as="targetPoint" />
          </mxGeometry>
        </mxCell>
        <mxCell id="sgPDyOiIJ39v793JOs24-57" value="" style="endArrow=none;html=1;entryX=1;entryY=0.5;entryDx=0;entryDy=0;entryPerimeter=0;" edge="1" parent="1" target="sgPDyOiIJ39v793JOs24-53">
          <mxGeometry width="50" height="50" relative="1" as="geometry">
            <mxPoint x="610" y="590" as="sourcePoint" />
            <mxPoint x="520" y="440" as="targetPoint" />
          </mxGeometry>
        </mxCell>
        <mxCell id="sgPDyOiIJ39v793JOs24-63" style="edgeStyle=orthogonalEdgeStyle;rounded=0;orthogonalLoop=1;jettySize=auto;html=1;entryX=1;entryY=0.5;entryDx=0;entryDy=0;" edge="1" parent="1" source="sgPDyOiIJ39v793JOs24-58" target="sgPDyOiIJ39v793JOs24-62">
          <mxGeometry relative="1" as="geometry">
            <Array as="points">
              <mxPoint x="743" y="640" />
            </Array>
          </mxGeometry>
        </mxCell>
        <mxCell id="sgPDyOiIJ39v793JOs24-64" style="edgeStyle=orthogonalEdgeStyle;rounded=0;orthogonalLoop=1;jettySize=auto;html=1;entryX=0;entryY=0.5;entryDx=0;entryDy=0;" edge="1" parent="1" source="sgPDyOiIJ39v793JOs24-58" target="sgPDyOiIJ39v793JOs24-28">
          <mxGeometry relative="1" as="geometry">
            <Array as="points">
              <mxPoint x="743" y="400" />
            </Array>
          </mxGeometry>
        </mxCell>
        <mxCell id="sgPDyOiIJ39v793JOs24-71" style="edgeStyle=orthogonalEdgeStyle;rounded=0;orthogonalLoop=1;jettySize=auto;html=1;entryX=1;entryY=0.5;entryDx=0;entryDy=0;" edge="1" parent="1" source="sgPDyOiIJ39v793JOs24-58" target="sgPDyOiIJ39v793JOs24-11">
          <mxGeometry relative="1" as="geometry">
            <Array as="points">
              <mxPoint x="790" y="550" />
              <mxPoint x="790" y="680" />
              <mxPoint x="210" y="680" />
              <mxPoint x="210" y="330" />
            </Array>
          </mxGeometry>
        </mxCell>
        <mxCell id="sgPDyOiIJ39v793JOs24-58" value="" style="rhombus;whiteSpace=wrap;html=1;rounded=0;gradientColor=none;" vertex="1" parent="1">
          <mxGeometry x="730" y="535" width="25" height="30" as="geometry" />
        </mxCell>
        <mxCell id="sgPDyOiIJ39v793JOs24-59" value="" style="endArrow=classic;html=1;entryX=0;entryY=0.5;entryDx=0;entryDy=0;" edge="1" parent="1" target="sgPDyOiIJ39v793JOs24-58">
          <mxGeometry width="50" height="50" relative="1" as="geometry">
            <mxPoint x="690" y="550" as="sourcePoint" />
            <mxPoint x="520" y="440" as="targetPoint" />
          </mxGeometry>
        </mxCell>
        <mxCell id="sgPDyOiIJ39v793JOs24-67" style="edgeStyle=orthogonalEdgeStyle;rounded=0;orthogonalLoop=1;jettySize=auto;html=1;entryX=1;entryY=0.25;entryDx=0;entryDy=0;" edge="1" parent="1" source="sgPDyOiIJ39v793JOs24-62" target="sgPDyOiIJ39v793JOs24-18">
          <mxGeometry relative="1" as="geometry">
            <Array as="points">
              <mxPoint x="356" y="640" />
              <mxPoint x="356" y="340" />
            </Array>
          </mxGeometry>
        </mxCell>
        <mxCell id="sgPDyOiIJ39v793JOs24-62" value="Successful&amp;nbsp;" style="html=1;rotation=0;direction=east;gradientDirection=east;rounded=1;horizontal=1;gradientColor=#ffd966;fillColor=#fff2cc;strokeColor=#d6b656;" vertex="1" parent="1">
          <mxGeometry x="375.5" y="620" width="100" height="40" as="geometry" />
        </mxCell>
        <mxCell id="sgPDyOiIJ39v793JOs24-65" value="Time recording&amp;nbsp;" style="text;html=1;strokeColor=none;fillColor=none;align=center;verticalAlign=middle;whiteSpace=wrap;rounded=0;" vertex="1" parent="1">
          <mxGeometry x="560" y="550" width="90" height="20" as="geometry" />
        </mxCell>
        <mxCell id="sgPDyOiIJ39v793JOs24-68" value="rrrrrr" style="ellipse;html=1;shape=endState;fillColor=#000000;strokeColor=#ff0000;rounded=0;" vertex="1" parent="1">
          <mxGeometry x="265" y="480" width="30" height="30" as="geometry" />
        </mxCell>
        <mxCell id="sgPDyOiIJ39v793JOs24-69" value="DVD stopped&amp;nbsp;" style="text;html=1;strokeColor=none;fillColor=none;align=center;verticalAlign=middle;whiteSpace=wrap;rounded=0;" vertex="1" parent="1">
          <mxGeometry x="235" y="520" width="90" height="20" as="geometry" />
        </mxCell>
        <mxCell id="sgPDyOiIJ39v793JOs24-72" value="Disc damaged&amp;nbsp;" style="html=1;rotation=0;direction=east;gradientDirection=east;rounded=1;horizontal=1;gradientColor=#d5739d;fillColor=#e6d0de;strokeColor=#996185;" vertex="1" parent="1">
          <mxGeometry x="165" y="650" width="100" height="40" as="geometry" />
        </mxCell>
      </root>
    </mxGraphModel>
  </diagram>
  <diagram id="93QkW95OPvs3D_4Ogpfk" name="Page-2">
    <mxGraphModel dx="946" dy="662" grid="1" gridSize="10" guides="1" tooltips="1" connect="1" arrows="1" fold="1" page="1" pageScale="1" pageWidth="850" pageHeight="1100" math="0" shadow="0">
      <root>
        <mxCell id="_-v7dFgQ6czYNv9Y7Xcr-0" />
        <mxCell id="_-v7dFgQ6czYNv9Y7Xcr-1" parent="_-v7dFgQ6czYNv9Y7Xcr-0" />
      </root>
    </mxGraphModel>
  </diagram>
</mxfile>
